<?xml version="1.0" encoding="utf-8"?>
<!-- Generator: Adobe Illustrator 26.1.0, SVG Export Plug-In . SVG Version: 6.00 Build 0)  -->
<svg version="1.1" id="Слой_1" xmlns="http://www.w3.org/2000/svg" xmlns:xlink="http://www.w3.org/1999/xlink" x="0px" y="0px"
	 viewBox="0 0 281.1 78.6" style="enable-background:new 0 0 281.1 78.6;" xml:space="preserve">
<style type="text/css">
	.st0{fill:#006991;}
</style>
<path class="st0" d="M39.3,0C17.6,0,0,17.6,0,39.3s17.6,39.3,39.3,39.3S78.6,61,78.6,39.3S61,0,39.3,0z M55.5,55.5H23.1V23.1h32.4
	V55.5z"/>
<g>
	<path class="st0" d="M100.3,10.7c22-0.4,41.1-0.5,57.5-0.2c-0.4,10-1.1,16.3-2.1,18.8L138,29.2c1,21.8,1.3,34.4,0.7,37.8
		c-4.9,0.9-11.3,1.3-19,1.4l0.3-38.5l-19.6,0V10.7z"/>
	<path class="st0" d="M204.1,10.6c5.5,13.4,12.1,31.1,19.8,53.1L202,65.8l-5.7-22.3l-12,0.7l-3.7,24.2c-9.4-0.2-16.5-0.9-21.3-2.1
		c2.7-11.1,9.1-29.7,19.1-55.8C188.1,9.9,196.7,9.9,204.1,10.6z M194.2,33c-1.8-5.4-3.5-9.2-5.2-11.5l-3.5,11.9L194.2,33z"/>
	<path class="st0" d="M261.6,8.2l4.5,13.9c-8.8,0.4-14.4,2.2-16.7,5.4c-2.4,3.2-2.1,6,0.9,8.3c3,2.4,6.5,5.2,10.5,8.6
		s5.9,7.7,5.6,13c-0.3,5.3-3.8,9-10.4,11c-6.6,2-16.2,1.8-28.7-0.6l-1-11.8c9.8,0.2,16-0.4,18.5-2c2.5-1.6,2-3.4-1.6-5.4
		c-3.6-2-7.1-4.4-10.5-7.3c-3.4-2.8-5.3-6.3-5.6-10.4c-0.3-4.1,1.2-8.2,4.5-12.5C235,14.2,245,10.7,261.6,8.2z"/>
</g>
</svg>
